<svg width="1311" height="276" viewBox="0 0 1311 276" fill="none" xmlns="http://www.w3.org/2000/svg">
<g filter="url(#filter0_d_451_77)">
<rect x="99.9954" y="238.359" width="150" height="150" rx="6" transform="rotate(-115.521 99.9954 238.359)" fill="white"/>
<rect x="100.231" y="237.692" width="149" height="149" rx="5.5" transform="rotate(-115.521 100.231 237.692)" stroke="#EBEBEB"/>
</g>
<rect x="67.5271" y="136.407" width="30" height="30.3175" rx="15" transform="rotate(-115.521 67.5271 136.407)" fill="#2E2E2E"/>
<rect x="128.047" y="158.278" width="30" height="30.3175" rx="15" transform="rotate(-115.521 128.047 158.278)" fill="#2E2E2E"/>
<rect x="107.796" y="218.398" width="30" height="30.3175" rx="15" transform="rotate(-115.521 107.796 218.398)" fill="#2E2E2E"/>
<rect x="148.583" y="97.2919" width="30" height="30.3175" rx="15" transform="rotate(-115.521 148.583 97.2919)" fill="#2E2E2E"/>
<rect x="188.132" y="179.248" width="30" height="30.3175" rx="15" transform="rotate(-115.521 188.132 179.248)" fill="#2E2E2E"/>
<g filter="url(#filter1_d_451_77)">
<path d="M385.891 83.25H405.734L434.953 166.766L464.172 83.25H484.016L442.922 197H426.984L385.891 83.25ZM375.188 83.25H394.953L398.547 164.656V197H375.188V83.25ZM474.953 83.25H494.797V197H471.359V164.656L474.953 83.25ZM559.562 177.938V140.281C559.562 137.573 559.12 135.255 558.234 133.328C557.349 131.349 555.969 129.812 554.094 128.719C552.271 127.625 549.901 127.078 546.984 127.078C544.484 127.078 542.323 127.521 540.5 128.406C538.677 129.24 537.271 130.464 536.281 132.078C535.292 133.641 534.797 135.49 534.797 137.625H512.297C512.297 134.031 513.13 130.62 514.797 127.391C516.464 124.161 518.885 121.323 522.062 118.875C525.24 116.375 529.016 114.422 533.391 113.016C537.818 111.609 542.766 110.906 548.234 110.906C554.797 110.906 560.63 112 565.734 114.188C570.839 116.375 574.849 119.656 577.766 124.031C580.734 128.406 582.219 133.875 582.219 140.438V176.609C582.219 181.245 582.505 185.047 583.078 188.016C583.651 190.932 584.484 193.484 585.578 195.672V197H562.844C561.75 194.708 560.917 191.844 560.344 188.406C559.823 184.917 559.562 181.427 559.562 177.938ZM562.531 145.516L562.688 158.25H550.109C547.141 158.25 544.562 158.589 542.375 159.266C540.188 159.943 538.391 160.906 536.984 162.156C535.578 163.354 534.536 164.76 533.859 166.375C533.234 167.99 532.922 169.76 532.922 171.688C532.922 173.615 533.365 175.359 534.25 176.922C535.135 178.432 536.411 179.63 538.078 180.516C539.745 181.349 541.698 181.766 543.938 181.766C547.323 181.766 550.266 181.089 552.766 179.734C555.266 178.38 557.193 176.714 558.547 174.734C559.953 172.755 560.682 170.88 560.734 169.109L566.672 178.641C565.839 180.776 564.693 182.99 563.234 185.281C561.828 187.573 560.031 189.734 557.844 191.766C555.656 193.745 553.026 195.385 549.953 196.688C546.88 197.938 543.234 198.562 539.016 198.562C533.651 198.562 528.781 197.495 524.406 195.359C520.083 193.172 516.646 190.177 514.094 186.375C511.594 182.521 510.344 178.146 510.344 173.25C510.344 168.823 511.177 164.891 512.844 161.453C514.51 158.016 516.958 155.125 520.188 152.781C523.469 150.385 527.557 148.589 532.453 147.391C537.349 146.141 543.026 145.516 549.484 145.516H562.531ZM640.969 112.469V128.406H591.75V112.469H640.969ZM603.938 91.6094H626.438V171.531C626.438 173.979 626.75 175.854 627.375 177.156C628.052 178.458 629.042 179.37 630.344 179.891C631.646 180.359 633.286 180.594 635.266 180.594C636.672 180.594 637.922 180.542 639.016 180.438C640.161 180.281 641.125 180.125 641.906 179.969L641.984 196.531C640.057 197.156 637.974 197.651 635.734 198.016C633.495 198.38 631.021 198.562 628.312 198.562C623.365 198.562 619.042 197.755 615.344 196.141C611.698 194.474 608.885 191.818 606.906 188.172C604.927 184.526 603.938 179.734 603.938 173.797V91.6094ZM688.703 180.984C691.464 180.984 693.911 180.464 696.047 179.422C698.182 178.328 699.849 176.818 701.047 174.891C702.297 172.911 702.948 170.594 703 167.938H724.172C724.12 173.875 722.531 179.161 719.406 183.797C716.281 188.38 712.089 192 706.828 194.656C701.568 197.26 695.682 198.562 689.172 198.562C682.609 198.562 676.88 197.469 671.984 195.281C667.141 193.094 663.104 190.073 659.875 186.219C656.646 182.312 654.224 177.781 652.609 172.625C650.995 167.417 650.188 161.844 650.188 155.906V153.641C650.188 147.651 650.995 142.078 652.609 136.922C654.224 131.714 656.646 127.182 659.875 123.328C663.104 119.422 667.141 116.375 671.984 114.188C676.828 112 682.505 110.906 689.016 110.906C695.943 110.906 702.01 112.234 707.219 114.891C712.479 117.547 716.594 121.349 719.562 126.297C722.583 131.193 724.12 137 724.172 143.719H703C702.948 140.906 702.349 138.354 701.203 136.062C700.109 133.771 698.495 131.948 696.359 130.594C694.276 129.188 691.698 128.484 688.625 128.484C685.344 128.484 682.661 129.188 680.578 130.594C678.495 131.948 676.88 133.823 675.734 136.219C674.589 138.562 673.781 141.245 673.312 144.266C672.896 147.234 672.688 150.359 672.688 153.641V155.906C672.688 159.188 672.896 162.339 673.312 165.359C673.729 168.38 674.51 171.062 675.656 173.406C676.854 175.75 678.495 177.599 680.578 178.953C682.661 180.307 685.37 180.984 688.703 180.984ZM759.172 77V197H736.672V77H759.172ZM755.969 151.766H749.797C749.849 145.88 750.63 140.464 752.141 135.516C753.651 130.516 755.812 126.193 758.625 122.547C761.438 118.849 764.797 115.984 768.703 113.953C772.661 111.922 777.036 110.906 781.828 110.906C785.995 110.906 789.771 111.505 793.156 112.703C796.594 113.849 799.536 115.724 801.984 118.328C804.484 120.88 806.411 124.24 807.766 128.406C809.12 132.573 809.797 137.625 809.797 143.562V197H787.141V143.406C787.141 139.656 786.594 136.714 785.5 134.578C784.458 132.391 782.922 130.854 780.891 129.969C778.911 129.031 776.464 128.562 773.547 128.562C770.318 128.562 767.557 129.161 765.266 130.359C763.026 131.557 761.229 133.224 759.875 135.359C758.521 137.443 757.531 139.891 756.906 142.703C756.281 145.516 755.969 148.536 755.969 151.766ZM934.094 159.266H957.453C956.984 166.922 954.875 173.719 951.125 179.656C947.427 185.594 942.245 190.229 935.578 193.562C928.964 196.896 920.995 198.562 911.672 198.562C904.38 198.562 897.844 197.312 892.062 194.812C886.281 192.26 881.333 188.615 877.219 183.875C873.156 179.135 870.057 173.406 867.922 166.688C865.786 159.969 864.719 152.443 864.719 144.109V136.219C864.719 127.885 865.812 120.359 868 113.641C870.24 106.87 873.417 101.115 877.531 96.375C881.698 91.6354 886.672 87.9896 892.453 85.4375C898.234 82.8854 904.693 81.6094 911.828 81.6094C921.307 81.6094 929.302 83.3281 935.812 86.7656C942.375 90.2031 947.453 94.9427 951.047 100.984C954.693 107.026 956.88 113.901 957.609 121.609H934.172C933.911 117.026 933 113.146 931.438 109.969C929.875 106.74 927.505 104.318 924.328 102.703C921.203 101.036 917.036 100.203 911.828 100.203C907.922 100.203 904.51 100.932 901.594 102.391C898.677 103.849 896.229 106.062 894.25 109.031C892.271 112 890.786 115.75 889.797 120.281C888.859 124.76 888.391 130.021 888.391 136.062V144.109C888.391 149.995 888.833 155.177 889.719 159.656C890.604 164.083 891.958 167.833 893.781 170.906C895.656 173.927 898.052 176.219 900.969 177.781C903.938 179.292 907.505 180.047 911.672 180.047C916.568 180.047 920.604 179.266 923.781 177.703C926.958 176.141 929.38 173.823 931.047 170.75C932.766 167.677 933.781 163.849 934.094 159.266ZM1021.44 176.766V112.469H1043.94V197H1022.77L1021.44 176.766ZM1023.94 159.422L1030.58 159.266C1030.58 164.891 1029.93 170.125 1028.62 174.969C1027.32 179.76 1025.37 183.927 1022.77 187.469C1020.16 190.958 1016.88 193.693 1012.92 195.672C1008.96 197.599 1004.3 198.562 998.938 198.562C994.823 198.562 991.021 197.99 987.531 196.844C984.094 195.646 981.125 193.797 978.625 191.297C976.177 188.745 974.25 185.49 972.844 181.531C971.49 177.521 970.812 172.703 970.812 167.078V112.469H993.312V167.234C993.312 169.734 993.599 171.844 994.172 173.562C994.797 175.281 995.656 176.688 996.75 177.781C997.844 178.875 999.12 179.656 1000.58 180.125C1002.09 180.594 1003.76 180.828 1005.58 180.828C1010.21 180.828 1013.86 179.891 1016.52 178.016C1019.22 176.141 1021.12 173.589 1022.22 170.359C1023.36 167.078 1023.94 163.432 1023.94 159.422ZM1061.12 77H1083.62V177.625L1081.36 197H1061.12V77ZM1137.14 153.875V155.516C1137.14 161.818 1136.46 167.599 1135.11 172.859C1133.81 178.12 1131.78 182.677 1129.02 186.531C1126.26 190.333 1122.82 193.302 1118.7 195.438C1114.64 197.521 1109.85 198.562 1104.33 198.562C1099.17 198.562 1094.69 197.521 1090.89 195.438C1087.14 193.354 1083.99 190.411 1081.44 186.609C1078.89 182.807 1076.83 178.354 1075.27 173.25C1073.7 168.146 1072.53 162.573 1071.75 156.531V152.938C1072.53 146.896 1073.7 141.323 1075.27 136.219C1076.83 131.115 1078.89 126.661 1081.44 122.859C1083.99 119.057 1087.14 116.115 1090.89 114.031C1094.64 111.948 1099.07 110.906 1104.17 110.906C1109.74 110.906 1114.59 111.974 1118.7 114.109C1122.87 116.193 1126.31 119.161 1129.02 123.016C1131.78 126.818 1133.81 131.349 1135.11 136.609C1136.46 141.818 1137.14 147.573 1137.14 153.875ZM1114.64 155.516V153.875C1114.64 150.438 1114.38 147.208 1113.86 144.188C1113.39 141.115 1112.56 138.432 1111.36 136.141C1110.16 133.797 1108.52 131.948 1106.44 130.594C1104.41 129.24 1101.78 128.562 1098.55 128.562C1095.47 128.562 1092.87 129.083 1090.73 130.125C1088.6 131.167 1086.83 132.625 1085.42 134.5C1084.07 136.375 1083.05 138.615 1082.38 141.219C1081.7 143.771 1081.28 146.583 1081.12 149.656V159.891C1081.28 164.005 1081.96 167.651 1083.16 170.828C1084.41 173.953 1086.28 176.427 1088.78 178.25C1091.33 180.021 1094.64 180.906 1098.7 180.906C1101.88 180.906 1104.51 180.281 1106.59 179.031C1108.68 177.781 1110.29 176.01 1111.44 173.719C1112.64 171.427 1113.47 168.745 1113.94 165.672C1114.41 162.547 1114.64 159.161 1114.64 155.516ZM1190.03 198.562C1183.47 198.562 1177.58 197.521 1172.38 195.438C1167.17 193.302 1162.74 190.359 1159.09 186.609C1155.5 182.859 1152.74 178.51 1150.81 173.562C1148.89 168.562 1147.92 163.25 1147.92 157.625V154.5C1147.92 148.094 1148.83 142.234 1150.66 136.922C1152.48 131.609 1155.08 127 1158.47 123.094C1161.91 119.188 1166.07 116.193 1170.97 114.109C1175.86 111.974 1181.39 110.906 1187.53 110.906C1193.52 110.906 1198.83 111.896 1203.47 113.875C1208.1 115.854 1211.98 118.667 1215.11 122.312C1218.29 125.958 1220.68 130.333 1222.3 135.438C1223.91 140.49 1224.72 146.115 1224.72 152.312V161.688H1157.53V146.688H1202.61V144.969C1202.61 141.844 1202.04 139.057 1200.89 136.609C1199.8 134.109 1198.13 132.13 1195.89 130.672C1193.65 129.214 1190.79 128.484 1187.3 128.484C1184.33 128.484 1181.78 129.135 1179.64 130.438C1177.51 131.74 1175.76 133.562 1174.41 135.906C1173.1 138.25 1172.11 141.01 1171.44 144.188C1170.81 147.312 1170.5 150.75 1170.5 154.5V157.625C1170.5 161.01 1170.97 164.135 1171.91 167C1172.9 169.865 1174.28 172.339 1176.05 174.422C1177.87 176.505 1180.06 178.12 1182.61 179.266C1185.21 180.411 1188.16 180.984 1191.44 180.984C1195.5 180.984 1199.28 180.203 1202.77 178.641C1206.31 177.026 1209.35 174.604 1211.91 171.375L1222.84 183.25C1221.07 185.802 1218.65 188.25 1215.58 190.594C1212.56 192.938 1208.91 194.865 1204.64 196.375C1200.37 197.833 1195.5 198.562 1190.03 198.562ZM1283.23 173.641C1283.23 172.026 1282.77 170.568 1281.83 169.266C1280.89 167.964 1279.15 166.766 1276.59 165.672C1274.09 164.526 1270.47 163.484 1265.73 162.547C1261.46 161.609 1257.48 160.438 1253.78 159.031C1250.14 157.573 1246.96 155.828 1244.25 153.797C1241.59 151.766 1239.51 149.37 1238 146.609C1236.49 143.797 1235.73 140.594 1235.73 137C1235.73 133.458 1236.49 130.125 1238 127C1239.56 123.875 1241.78 121.115 1244.64 118.719C1247.56 116.271 1251.1 114.37 1255.27 113.016C1259.48 111.609 1264.22 110.906 1269.48 110.906C1276.83 110.906 1283.13 112.078 1288.39 114.422C1293.7 116.766 1297.77 119.995 1300.58 124.109C1303.44 128.172 1304.88 132.807 1304.88 138.016H1282.38C1282.38 135.828 1281.91 133.875 1280.97 132.156C1280.08 130.385 1278.68 129.005 1276.75 128.016C1274.88 126.974 1272.43 126.453 1269.41 126.453C1266.91 126.453 1264.74 126.896 1262.92 127.781C1261.1 128.615 1259.69 129.76 1258.7 131.219C1257.77 132.625 1257.3 134.188 1257.3 135.906C1257.3 137.208 1257.56 138.38 1258.08 139.422C1258.65 140.411 1259.56 141.323 1260.81 142.156C1262.06 142.99 1263.68 143.771 1265.66 144.5C1267.69 145.177 1270.19 145.802 1273.16 146.375C1279.25 147.625 1284.69 149.266 1289.48 151.297C1294.28 153.276 1298.08 155.984 1300.89 159.422C1303.7 162.807 1305.11 167.26 1305.11 172.781C1305.11 176.531 1304.28 179.969 1302.61 183.094C1300.94 186.219 1298.55 188.953 1295.42 191.297C1292.3 193.589 1288.55 195.385 1284.17 196.688C1279.85 197.938 1274.98 198.562 1269.56 198.562C1261.7 198.562 1255.03 197.156 1249.56 194.344C1244.15 191.531 1240.03 187.964 1237.22 183.641C1234.46 179.266 1233.08 174.786 1233.08 170.203H1254.41C1254.51 173.276 1255.29 175.75 1256.75 177.625C1258.26 179.5 1260.16 180.854 1262.45 181.688C1264.8 182.521 1267.32 182.938 1270.03 182.938C1272.95 182.938 1275.37 182.547 1277.3 181.766C1279.22 180.932 1280.68 179.839 1281.67 178.484C1282.71 177.078 1283.23 175.464 1283.23 173.641Z" fill="white"/>
</g>
<g filter="url(#filter2_d_451_77)">
<rect x="148.295" y="177.109" width="150" height="150" rx="6" transform="rotate(-66.7452 148.295 177.109)" fill="white"/>
<rect x="148.952" y="176.847" width="149" height="149" rx="5.5" transform="rotate(-66.7452 148.952 176.847)" stroke="#EBEBEB"/>
</g>
<rect x="203.581" y="85.5013" width="30" height="30.3175" rx="15" transform="rotate(-66.7452 203.581 85.5013)" fill="#2E2E2E"/>
<rect x="227.014" y="145.434" width="30" height="30.3175" rx="15" transform="rotate(-66.7452 227.014 145.434)" fill="#2E2E2E"/>
<rect x="168.45" y="169.821" width="30" height="30.3175" rx="15" transform="rotate(-66.7452 168.45 169.821)" fill="#2E2E2E"/>
<rect x="286.417" y="120.69" width="30" height="30.3175" rx="15" transform="rotate(-66.7452 286.417 120.69)" fill="#2E2E2E"/>
<rect x="250.837" y="204.446" width="30" height="30.3175" rx="15" transform="rotate(-66.7452 250.837 204.446)" fill="#2E2E2E"/>
<defs>
<filter id="filter0_d_451_77" x="33.3666" y="40.3666" width="203.994" height="203.994" filterUnits="userSpaceOnUse" color-interpolation-filters="sRGB">
<feFlood flood-opacity="0" result="BackgroundImageFix"/>
<feColorMatrix in="SourceAlpha" type="matrix" values="0 0 0 0 0 0 0 0 0 0 0 0 0 0 0 0 0 0 127 0" result="hardAlpha"/>
<feOffset dy="4"/>
<feGaussianBlur stdDeviation="2"/>
<feComposite in2="hardAlpha" operator="out"/>
<feColorMatrix type="matrix" values="0 0 0 0 0 0 0 0 0 0 0 0 0 0 0 0 0 0 0.25 0"/>
<feBlend mode="normal" in2="BackgroundImageFix" result="effect1_dropShadow_451_77"/>
<feBlend mode="normal" in="SourceGraphic" in2="effect1_dropShadow_451_77" result="shape"/>
</filter>
<filter id="filter1_d_451_77" x="371.188" y="77" width="937.922" height="129.562" filterUnits="userSpaceOnUse" color-interpolation-filters="sRGB">
<feFlood flood-opacity="0" result="BackgroundImageFix"/>
<feColorMatrix in="SourceAlpha" type="matrix" values="0 0 0 0 0 0 0 0 0 0 0 0 0 0 0 0 0 0 127 0" result="hardAlpha"/>
<feOffset dy="4"/>
<feGaussianBlur stdDeviation="2"/>
<feComposite in2="hardAlpha" operator="out"/>
<feColorMatrix type="matrix" values="0 0 0 0 0 0 0 0 0 0 0 0 0 0 0 0 0 0 0.25 0"/>
<feBlend mode="normal" in2="BackgroundImageFix" result="effect1_dropShadow_451_77"/>
<feBlend mode="normal" in="SourceGraphic" in2="effect1_dropShadow_451_77" result="shape"/>
</filter>
<filter id="filter2_d_451_77" x="146.175" y="41.1751" width="201.277" height="201.277" filterUnits="userSpaceOnUse" color-interpolation-filters="sRGB">
<feFlood flood-opacity="0" result="BackgroundImageFix"/>
<feColorMatrix in="SourceAlpha" type="matrix" values="0 0 0 0 0 0 0 0 0 0 0 0 0 0 0 0 0 0 127 0" result="hardAlpha"/>
<feOffset dy="4"/>
<feGaussianBlur stdDeviation="2"/>
<feComposite in2="hardAlpha" operator="out"/>
<feColorMatrix type="matrix" values="0 0 0 0 0 0 0 0 0 0 0 0 0 0 0 0 0 0 0.25 0"/>
<feBlend mode="normal" in2="BackgroundImageFix" result="effect1_dropShadow_451_77"/>
<feBlend mode="normal" in="SourceGraphic" in2="effect1_dropShadow_451_77" result="shape"/>
</filter>
</defs>
</svg>
