<svg width="305" height="188" viewBox="0 0 305 188" fill="none" xmlns="http://www.w3.org/2000/svg">
<path d="M61.4844 35.25V149H38.125V35.25H61.4844ZM96.4844 35.25V53.6094H3.67188V35.25H96.4844ZM133.281 35.25V149H109.844V35.25H133.281ZM201.406 35.25L156.328 91.4219L130.312 119.391L126.094 97.2031L143.672 73.1406L172.656 35.25H201.406ZM174.766 149L141.25 96.4219L158.594 81.8906L202.5 149H174.766ZM255.859 108.453H226.875V90.1719H255.859C260.339 90.1719 263.984 89.4427 266.797 87.9844C269.609 86.474 271.667 84.3906 272.969 81.7344C274.271 79.0781 274.922 76.0833 274.922 72.75C274.922 69.3646 274.271 66.2135 272.969 63.2969C271.667 60.3802 269.609 58.0365 266.797 56.2656C263.984 54.4948 260.339 53.6094 255.859 53.6094H235V149H211.562V35.25H255.859C264.766 35.25 272.396 36.8646 278.75 40.0938C285.156 43.2708 290.052 47.6719 293.438 53.2969C296.823 58.9219 298.516 65.3542 298.516 72.5938C298.516 79.9375 296.823 86.2917 293.438 91.6562C290.052 97.0208 285.156 101.161 278.75 104.078C272.396 106.995 264.766 108.453 255.859 108.453Z" fill="white"/>
<rect y="149" width="305" height="23" fill="white"/>
</svg>
